<svg id="Capa_1" enable-background="new 0 0 512 512" height="512" viewBox="0 0 512 512" width="512" xmlns="http://www.w3.org/2000/svg"><g><path d="m449.37 413.252c0-22.549-7.717-44.699-21.728-62.368-11.744-14.809-27.569-26.013-45.312-32.289l-16.442-120.257c11.707-6.482 19.654-18.96 19.654-33.264 0-14.582-8.26-27.264-20.343-33.632v-22.282c.001-60.191-48.986-109.16-109.199-109.16-19.96 0-39.488 5.438-56.475 15.725-3.543 2.146-4.676 6.757-2.53 10.3 2.145 3.543 6.758 4.676 10.3 2.53 14.643-8.867 31.485-13.555 48.705-13.555 51.942 0 94.2 42.24 94.2 94.16v18.019c-.878-.061-1.762-.103-2.655-.103h-5.1c-6.938 0-12.583 5.645-12.583 12.583v23.267l-11.299-12.895c-1.11-1.267-2.615-2.124-4.271-2.431-41.009-7.612-50.766-35.55-51.146-36.688-.99-3.112-3.873-5.249-7.139-5.249s-6.148 2.089-7.139 5.201c-.396 1.186-10.152 29.124-51.161 36.736-1.656.308-3.161 1.164-4.271 2.431l-11.298 12.894v-23.266c0-6.938-5.645-12.583-12.583-12.583h-5.1c-.894 0-1.778.042-2.656.103v-18.019c0-21.596 7.495-42.689 21.104-59.393 2.616-3.211 2.134-7.936-1.077-10.552-3.212-2.617-7.936-2.133-10.552 1.077-15.782 19.373-24.474 43.831-24.474 68.868v22.282c-12.083 6.369-20.343 19.051-20.343 33.632 0 14.303 7.947 26.781 19.655 33.264l-16.442 120.257c-17.743 6.276-33.568 17.48-45.311 32.289-14.011 17.67-21.728 39.819-21.728 62.368l-.001 33.338c0 4.142 3.357 7.5 7.5 7.5s7.5-3.358 7.5-7.5v-6.74h.001v-.019c.011-4.767 3.895-8.641 8.669-8.641h42.45c4.775 0 8.66 3.885 8.66 8.66v48.48c0 4.781-3.885 8.67-8.66 8.67h-42.45c-4.78 0-8.67-3.889-8.67-8.67v-6.74c0-4.142-3.357-7.5-7.5-7.5s-7.5 3.358-7.5 7.5v6.74c0 13.052 10.618 23.67 23.67 23.67h339.404c13.05 0 23.666-10.617 23.666-23.666zm-15 0v4.586c-2.686-1.061-5.607-1.651-8.666-1.651h-28.804v-40.987c0-10.042-6.879-18.507-16.174-20.937v-19.471c0-.278-.025-.55-.042-.824 32.152 12.775 53.686 43.772 53.686 79.284zm-288.097-77.02h77.389c11.081 0 20.488 7.292 23.677 17.325h-101.066zm109.727 1.609c-6.751-9.371-17.467-15.699-29.674-16.51v-42.029c9.284 3.298 19.272 5.1 29.674 5.1s20.389-1.802 29.674-5.099v42.029c-12.207.809-22.922 7.137-29.674 16.509zm110.6-23.57-65.926-15.445v-26.491c24.367-14.225 41.385-39.707 43.869-69.261h3.002c1.291 0 2.567-.066 3.825-.192zm-21.738-172.195h2.683c12.682 0 22.998 10.317 22.998 22.999s-10.316 22.999-22.998 22.999h-2.683zm-141.827 19.761c29.281-6.13 45.028-21.47 52.965-32.848 7.937 11.378 23.684 26.718 52.965 32.848l20.897 23.85v9.886c0 40.709-33.135 73.829-73.862 73.829s-73.861-33.12-73.861-73.829v-9.887zm-38.579-19.761h2.683v45.997h-2.683c-12.682 0-22.999-10.317-22.999-22.999s10.317-22.998 22.999-22.998zm0 60.997h3.002c2.484 29.554 19.501 55.035 43.868 69.26v26.491l-65.926 15.447 15.23-111.39c1.258.126 2.535.192 3.826.192zm-86.825 214.768v-4.589c0-35.512 21.533-66.509 53.684-79.284-.017.274-.042.546-.042.824v19.468c-9.292 2.432-16.169 10.898-16.169 20.942v40.988h-28.804c-3.06 0-5.982.59-8.669 1.651zm52.473-1.61v-41.029c0-3.664 2.981-6.645 6.646-6.645h111.75v128.443h-97.741c1.061-2.687 1.651-5.61 1.651-8.67v-48.48c0-12.591-9.888-22.914-22.306-23.619zm133.396-47.671h45.83c4.143 0 7.5-3.358 7.5-7.5s-3.357-7.5-7.5-7.5h-44.67c3.188-10.035 12.596-17.328 23.678-17.328h77.389v17.328h-21.397c-4.143 0-7.5 3.358-7.5 7.5s3.357 7.5 7.5 7.5h30.92c3.667 0 6.65 2.979 6.65 6.64v41.028c-12.422.704-22.312 11.03-22.312 23.625v48.481c0 3.058.59 5.98 1.651 8.666h-97.739zm170.87 119.774c0 4.778-3.888 8.666-8.666 8.666h-42.45c-4.778 0-8.666-3.888-8.666-8.666v-48.481c0-4.778 3.888-8.666 8.666-8.666h42.45c4.778 0 8.666 3.888 8.666 8.666z"/></g></svg>